<svg xmlns="http://www.w3.org/2000/svg" viewBox="0 0 512 512"><title>hammer</title><g style="isolation:isolate"><g id="Layer_1" data-name="Layer 1"><path d="M335.27,0V8.53a75.53,75.53,0,0,1-57.8,0H142V31.32s97.78-12.88,97.78,65.4V330.57h37.65V71.74a75.53,75.53,0,0,1,57.8,0v8.52H370V0Z" fill="#bbbdbf"/><path d="M335.27,8.53a75.53,75.53,0,0,1-57.8,0H256v322h21.47V71.74a75.53,75.53,0,0,1,57.8,0v8.52H370V0H335.27Z" fill="#bbbdbf" style="mix-blend-mode:multiply"/><path d="M312.16,311.75h-107v11.89h24.36V482.85c0,38.86,58.3,38.86,58.3,0V323.64h24.36Z" fill="#ec1c24"/><path d="M334.94,71.63v-63a75.53,75.53,0,0,1-57.47-.12V71.74A75.51,75.51,0,0,1,334.94,71.63Z" fill="#bbbdbf" style="mix-blend-mode:multiply"/><path d="M256,511.78c15.41,1.25,31.8-8.32,31.8-28.93V323.64h24.36V311.75H256Z" fill="#ae1f24" style="mix-blend-mode:multiply"/></g></g></svg>